<svg id="Outline" height="512" viewBox="0 0 64 64" width="512" xmlns="http://www.w3.org/2000/svg"><path d="m30 24h-4a1 1 0 0 0 -1 1v4a1 1 0 0 0 1 1h4a1 1 0 0 0 1-1v-4a1 1 0 0 0 -1-1zm-1 4h-2v-2h2z"/><path d="m38 26a1 1 0 0 0 0-2h-4a1 1 0 0 0 -1 1v4a1 1 0 0 0 1 1h4a1 1 0 0 0 0-2h-3v-2z"/><path d="m22 40h-4a1 1 0 0 0 -1 1v16a1 1 0 0 0 2 0v-15h2v15a1 1 0 0 0 2 0v-16a1 1 0 0 0 -1-1z"/><path d="m30 40h-4a1 1 0 0 0 -1 1v16a1 1 0 0 0 2 0v-15h2v15a1 1 0 0 0 2 0v-16a1 1 0 0 0 -1-1z"/><path d="m38 40h-4a1 1 0 0 0 -1 1v16a1 1 0 0 0 2 0v-15h2v15a1 1 0 0 0 2 0v-16a1 1 0 0 0 -1-1z"/><path d="m46 40h-4a1 1 0 0 0 -1 1v16a1 1 0 0 0 2 0v-15h2v15a1 1 0 0 0 2 0v-16a1 1 0 0 0 -1-1z"/><path d="m55 50a1 1 0 0 0 -1 1v6a1 1 0 0 0 2 0v-6a1 1 0 0 0 -1-1z"/><path d="m9 50a1 1 0 0 0 -1 1v6a1 1 0 0 0 2 0v-6a1 1 0 0 0 -1-1z"/><path d="m61 42h-10v-5a1 1 0 0 0 -1-1h-4v-3a1 1 0 0 0 -1-1h-2v-10h1a1 1 0 0 0 0-2h-19v-1a7 7 0 0 1 13.77-1.75 1 1 0 1 0 1.94-.5 9 9 0 0 0 -5.71-6.23v-3.52a1 1 0 0 0 -1-1h-1v-3a1 1 0 0 0 -2 0v3h-1a1 1 0 0 0 -1 1v3.53a9 9 0 0 0 -6 8.47v1h-3a1 1 0 0 0 0 2h1v10h-2a1 1 0 0 0 -1 1v3h-4a1 1 0 0 0 -1 1v5h-10a1 1 0 0 0 -1 1v4a1 1 0 0 0 1 1h1v13a1 1 0 0 0 2 0v-13h7v13a1 1 0 0 0 2 0v-23h34v23a1 1 0 0 0 2 0v-13h7v13a1 1 0 0 0 2 0v-13h1a1 1 0 0 0 1-1v-4a1 1 0 0 0 -1-1zm-30-34h2v2.06c-.33 0-.66-.06-1-.06a8.26 8.26 0 0 0 -1 .06zm-27 38v-2h9v2zm19-24h18v10h-18zm-3 14v-2h24v2zm40 10h-9v-2h9z"/></svg>